<?xml version="1.0" encoding="utf-8"?>
<!-- Generator: Adobe Illustrator 15.0.2, SVG Export Plug-In . SVG Version: 6.00 Build 0)  -->
<!DOCTYPE svg PUBLIC "-//W3C//DTD SVG 1.1//EN" "http://www.w3.org/Graphics/SVG/1.1/DTD/svg11.dtd">
<svg version="1.1" id="Layer_1" xmlns="http://www.w3.org/2000/svg" xmlns:xlink="http://www.w3.org/1999/xlink" x="0px" y="0px"
	 width="20px" height="20px" viewBox="0 0 512 512" enable-background="new 0 0 512 512" xml:space="preserve">
<path fill="#C7C7C7" d="M106.649,234.665h63.991v106.662h106.656v63.991H170.64V511.96h-63.991V405.318H0v-63.991h106.649V234.665z M255.997,0
	L512,128.001L255.997,256.003l-64.023-32.016v-10.656h-21.307L0,128.001L255.997,0z M512,384.005L255.997,512l-64.023-32.008
	v-53.348h63.99l0.033,0.013l0.053-0.013h42.573v-21.287l128.048-64.03L512,384.005z M512,256.003L298.623,362.692v-42.704h-42.659
	h-63.99v-53.335l64.023,32.022l170.674-85.344L512,256.003z M0,256.003l85.324-42.665l-0.007,42.665v42.658L0,256.003z"/>
</svg>
