<?xml version="1.0" encoding="UTF-8" standalone="no"?>
<svg width="18px" height="18px" viewBox="0 0 39 25" version="1.1" xmlns="http://www.w3.org/2000/svg" xmlns:xlink="http://www.w3.org/1999/xlink" xmlns:sketch="http://www.bohemiancoding.com/sketch/ns">
    <!-- Generator: Sketch 3.5.1 (25234) - http://www.bohemiancoding.com/sketch -->
    <title>eye</title>
    <desc>Created with Sketch.</desc>
    <defs></defs>
    <g id="Page-1" stroke="none" stroke-width="1" fill="none" fill-rule="evenodd" sketch:type="MSPage">
        <g id="eye" sketch:type="MSLayerGroup" fill="#333">
            <g id="g4" transform="translate(19.497235, 12.508636) scale(1, -1) translate(-19.497235, -12.508636) translate(0.008111, 0.019477)" sketch:type="MSShapeGroup">
                <path d="M36.1940881,12.4891587 C33.989961,15.9005493 31.2275516,18.4518647 27.90686,20.1431049 C28.791411,18.6397803 29.2336866,17.0135877 29.2336866,15.2645273 C29.2336866,12.590344 28.2802566,10.3028332 26.3733965,8.4019948 C24.4665365,6.5011564 22.1717791,5.55073721 19.4891244,5.55073721 C16.8064696,5.55073721 14.5117122,6.5011564 12.6048522,8.4019948 C10.6979922,10.3028332 9.74456219,12.590344 9.74456219,15.2645273 C9.74456219,17.0135877 10.1868377,18.6397803 11.0713887,20.1431049 C7.75069716,18.4518647 4.98828779,15.9005493 2.78416062,12.4891587 C4.71277189,9.52587453 7.13078639,7.16608846 10.0382041,5.40980052 C12.9456219,3.65351258 16.0959286,2.7753686 19.4891244,2.7753686 C22.8823201,2.7753686 26.0326269,3.65351258 28.9400446,5.40980052 C31.8474624,7.16608846 34.2654769,9.52587453 36.1940881,12.4891587 L36.1940881,12.4891587 Z M20.5331846,20.8152645 C20.5331846,21.1043654 20.4316788,21.3501012 20.228667,21.5524718 C20.0256553,21.7548424 19.7791411,21.8560278 19.4891244,21.8560278 C17.6765198,21.8560278 16.1213051,21.2091645 14.8234802,19.915438 C13.5256553,18.6217115 12.8767429,17.0714079 12.8767429,15.2645273 C12.8767429,14.9754264 12.9782487,14.7296907 13.1812605,14.52732 C13.3842722,14.3249494 13.6307864,14.2237641 13.9208031,14.2237641 C14.2108199,14.2237641 14.4573341,14.3249494 14.6603458,14.52732 C14.8633575,14.7296907 14.9648634,14.9754264 14.9648634,15.2645273 C14.9648634,16.5076612 15.4071389,17.570107 16.2916899,18.4518647 C17.1762409,19.3336224 18.2420524,19.7745013 19.4891244,19.7745013 C19.7791411,19.7745013 20.0256553,19.8756866 20.228667,20.0780572 C20.4316788,20.2804279 20.5331846,20.5261636 20.5331846,20.8152645 L20.5331846,20.8152645 Z M38.9782487,12.4891587 C38.9782487,11.9976872 38.8332404,11.4989881 38.5432236,10.9930616 C36.5131065,7.66840127 33.783324,5.00505927 30.3538762,3.00303556 C26.9244283,1.00101185 23.3028444,0 19.4891244,0 C15.6754044,0 12.0538204,1.00462561 8.62437256,3.01387684 C5.19492471,5.02312807 2.46514222,7.68285632 0.435025098,10.9930616 C0.145008366,11.4989881 0,11.9976872 0,12.4891587 C0,12.9806302 0.145008366,13.4793293 0.435025098,13.9852559 C2.46514222,17.2954611 5.19492471,19.9551894 8.62437256,21.9644406 C12.0538204,23.9736918 15.6754044,24.9783174 19.4891244,24.9783174 C23.3028444,24.9783174 26.9244283,23.9736918 30.3538762,21.9644406 C33.783324,19.9551894 36.5131065,17.2954611 38.5432236,13.9852559 C38.8332404,13.4793293 38.9782487,12.9806302 38.9782487,12.4891587 L38.9782487,12.4891587 Z" id="path6"></path>
            </g>
        </g>
    </g>
</svg>
